<?xml version="1.0" encoding="iso-8859-1"?>
<!-- Generator: Adobe Illustrator 19.0.0, SVG Export Plug-In . SVG Version: 6.00 Build 0)  -->
<svg version="1.1" id="Capa_1" xmlns="http://www.w3.org/2000/svg" xmlns:xlink="http://www.w3.org/1999/xlink" x="0px" y="0px"
	 viewBox="0 0 512.002 512.002" style="enable-background:new 0 0 512.002 512.002;" xml:space="preserve">
<g>
	<path style="fill:#FFBD51;" d="M495.041,91.628c4.052,3.952,6.323,9.38,6.293,15.04v298.667c0.03,5.66-2.241,11.088-6.293,15.04
		l-47.04-47.04L310.188,235.521l180.48-139.52L495.041,91.628z"/>
	<path style="fill:#FFBD51;" d="M64.001,373.334l-46.933,46.933l-0.107,0.107c-4.052-3.952-6.323-9.38-6.293-15.04V106.668
		c-0.027-4.257,1.238-8.423,3.627-11.947l7.04,1.28l180.48,139.52L64.001,373.334z"/>
</g>
<g>
	<path style="fill:#FFE451;" d="M17.068,420.268l46.933-46.933l137.813-137.813l54.187,41.813l54.187-41.813l137.813,137.813
		l47.04,47.04c-3.952,4.052-9.38,6.323-15.04,6.293h-448c-5.66,0.03-11.088-2.241-15.04-6.293L17.068,420.268z"/>
	<path style="fill:#FFE451;" d="M480.001,85.334c5.66-0.03,11.088,2.242,15.04,6.293l-4.373,4.373l-180.48,139.52l-54.187,41.813
		l-54.187-41.813L21.334,96.001l-7.04-1.28c3.98-5.872,10.613-9.388,17.707-9.387H480.001z"/>
</g>
<path style="fill:#4C5B66;" d="M502.678,84.182c-5.951-6.123-14.139-9.558-22.677-9.515h-448
	c-10.623-0.009-20.558,5.254-26.517,14.048c-3.602,5.291-5.514,11.551-5.483,17.952v298.667c-0.069,8.449,3.296,16.564,9.323,22.485
	c5.951,6.123,14.139,9.558,22.677,9.515h448c17.632-0.099,31.901-14.368,32-32V106.668C512.07,98.219,508.705,90.104,502.678,84.182
	z M256.001,263.862L38.774,96.001h434.453L256.001,263.862z M487.404,412.929c-1.946,1.99-4.62,3.1-7.403,3.072h-448
	c-2.877,0.007-5.629-1.174-7.605-3.264c-1.978-1.953-3.082-4.623-3.061-7.403V109.473l164.405,127.04L56.46,365.793l15.083,15.083
	l131.2-131.2l46.731,36.117c3.84,2.964,9.195,2.964,13.035,0l46.731-36.117l131.2,131.2l15.083-15.083l-129.28-129.28
	l164.427-127.04v295.861C490.672,408.207,489.491,410.955,487.404,412.929L487.404,412.929z"/>
<g>
</g>
<g>
</g>
<g>
</g>
<g>
</g>
<g>
</g>
<g>
</g>
<g>
</g>
<g>
</g>
<g>
</g>
<g>
</g>
<g>
</g>
<g>
</g>
<g>
</g>
<g>
</g>
<g>
</g>
</svg>
